# xmcd CD database file
#
# Track frame offsets:
#	150
#	11807
#	25602
#	38977
#	48814
#	64532
#	78429
#	94160
#	106972
#	125470
#	140017
#	155010
#	170052
#	190000
#	207385
#
# Disc length: 2994 seconds
#
# Revision: 0
# Processed by: cddbd v1.5.1PL0 Copyright (c) Steve Scherf et al.
# Submitted via: CDex 1.51
#
DISCID=c80bb00f
DTITLE=Hiko  - First Embrace
DYEAR=2001
DGENRE=New Age
TTITLE0=Angels Sing 
TTITLE1=Wish
TTITLE2=A Kiss Unex Pected 
TTITLE3=If Only It Was You 
TTITLE4=Sophies Tears 
TTITLE5=Nana 
TTITLE6=First Embrace 
TTITLE7=The Question 
TTITLE8=Past Remembered 
TTITLE9=Forgiveness 
TTITLE10=A Tear For You 
TTITLE11=Forever You 
TTITLE12=April Morning 
TTITLE13=His Life On Earth 
TTITLE14=October Sky 
EXTD=YEAR: 2001
EXTT0=
EXTT1=
EXTT2=
EXTT3=
EXTT4=
EXTT5=
EXTT6=
EXTT7=
EXTT8=
EXTT9=
EXTT10=
EXTT11=
EXTT12=
EXTT13=
EXTT14=
PLAYORDER=
